Coordinates
version=1
nRows=21
nColumns=12
inDegrees=yes

Units are S.I. units (second, meters, Newtons, ...)
Angles are in degrees

endheader
time	SC_y	SC_z	SC_x	AC_y	AC_z	AC_x	GH_y	GH_z	GH_yy	EL_x	PS_y
       0.0              -20.66          28.86          70.79          63.21         -1.927          18.33          -73.6          47.86          8.603          89.03          48.09
  0.008499              -20.66          28.86          70.78          63.21         -1.927          18.32         -73.58          47.86          8.578          89.04          48.09
     0.017              -20.67          28.86          70.78          63.21         -1.926          18.32         -73.56          47.86          8.552          89.04          48.09
    0.0255              -20.68          28.86          70.78          63.21         -1.925          18.31         -73.54          47.86          8.524          89.04          48.09
     0.034              -20.68          28.86          70.77          63.21         -1.925           18.3         -73.52          47.86          8.495          89.04          48.09
    0.0425              -20.69          28.86          70.77          63.21         -1.924           18.3         -73.49          47.86          8.463          89.04           48.1
   0.05099               -20.7          28.86          70.77          63.21         -1.923          18.29         -73.46          47.86          8.429          89.05           48.1
   0.05949               -20.7          28.86          70.76           63.2         -1.922          18.28         -73.43          47.86          8.393          89.05           48.1
   0.06799              -20.71          28.87          70.76           63.2         -1.921          18.27          -73.4          47.86          8.355          89.05           48.1
   0.07649              -20.72          28.87          70.75           63.2          -1.92          18.26         -73.37          47.87          8.313          89.05           48.1
   0.08499              -20.73          28.87          70.74           63.2         -1.919          18.26         -73.33          47.87          8.269          89.06          48.11
   0.09349              -20.74          28.87          70.74           63.2         -1.918          18.24         -73.29          47.87          8.221          89.06          48.11
     0.102              -20.75          28.87          70.73           63.2         -1.916          18.23         -73.25          47.87          8.169          89.06          48.11
    0.1105              -20.77          28.87          70.72           63.2         -1.915          18.22         -73.21          47.87          8.113          89.07          48.11
     0.119              -20.78          28.88          70.72           63.2         -1.913          18.21         -73.16          47.87          8.053          89.07          48.12
    0.1275              -20.79          28.88          70.71           63.2         -1.912          18.19          -73.1          47.87          7.988          89.08          48.12
     0.136              -20.81          28.88           70.7          63.19          -1.91          18.18         -73.05          47.87          7.916          89.08          48.12
    0.1445              -20.83          28.88          70.69          63.19         -1.908          18.16         -72.98          47.87          7.839          89.09          48.13
     0.153              -20.85          28.89          70.68          63.19         -1.906          18.14         -72.91          47.88          7.754          89.09          48.13
    0.1615              -20.87          28.89          70.66          63.19         -1.903          18.13         -72.84          47.88          7.662           89.1          48.14
      0.17              -20.89          28.89          70.65          63.19         -1.901           18.1         -72.76          47.88           7.56          89.11          48.14
